<svg width="110" height="110" viewBox="0 0 110 110" fill="none" xmlns="http://www.w3.org/2000/svg">
<path d="M55.0001 17.1875C50.4417 17.1875 46.07 18.9983 42.8467 22.2216C39.6234 25.4449 37.8126 29.8166 37.8126 34.375C37.8126 38.9334 39.6234 43.3051 42.8467 46.5284C46.07 49.7517 50.4417 51.5625 55.0001 51.5625C59.5585 51.5625 63.9302 49.7517 67.1535 46.5284C70.3768 43.3051 72.1876 38.9334 72.1876 34.375C72.1876 29.8166 70.3768 25.4449 67.1535 22.2216C63.9302 18.9983 59.5585 17.1875 55.0001 17.1875ZM36.6667 60.7292C32.1083 60.7292 27.7366 62.54 24.5134 65.7633C21.2901 68.9865 19.4792 73.3583 19.4792 77.9167V83.3617C19.4792 86.8175 21.9817 89.76 25.3917 90.3146C44.9992 93.5183 65.0009 93.5183 84.6084 90.3146C86.2588 90.0459 87.7597 89.1989 88.8429 87.9251C89.9261 86.6513 90.5209 85.0337 90.5209 83.3617V77.9167C90.5209 73.3583 88.7101 68.9865 85.4868 65.7633C82.2635 62.54 77.8918 60.7292 73.3334 60.7292H71.7751C70.9272 60.7292 70.0838 60.8667 69.2817 61.1233L65.3126 62.4204C58.6116 64.6077 51.3886 64.6077 44.6876 62.4204L40.7184 61.1233C39.9147 60.8618 39.0748 60.7288 38.2297 60.7292H36.6667Z" fill="#F9DB3D"/>
</svg>
