<svg width="270" height="270" viewBox="0 0 270 270" fill="none" xmlns="http://www.w3.org/2000/svg">
<path d="M207.562 205.875L229.5 227.812L207.562 249.75L219.375 261.562L253.125 227.812L219.375 194.062L207.562 205.875ZM189 205.875L167.062 227.812L189 249.75L177.188 261.562L143.438 227.812L177.188 194.062L189 205.875Z" fill="#F8F8F8"/>
<path d="M92.8125 75.9375C97.4724 75.9375 101.25 72.1599 101.25 67.5C101.25 62.8401 97.4724 59.0625 92.8125 59.0625C88.1526 59.0625 84.375 62.8401 84.375 67.5C84.375 72.1599 88.1526 75.9375 92.8125 75.9375Z" fill="#F8F8F8"/>
<path d="M92.8125 143.438C97.4724 143.438 101.25 139.66 101.25 135C101.25 130.34 97.4724 126.562 92.8125 126.562C88.1526 126.562 84.375 130.34 84.375 135C84.375 139.66 88.1526 143.438 92.8125 143.438Z" fill="#F8F8F8"/>
<path d="M92.8125 210.938C97.4724 210.938 101.25 207.16 101.25 202.5C101.25 197.84 97.4724 194.062 92.8125 194.062C88.1526 194.062 84.375 197.84 84.375 202.5C84.375 207.16 88.1526 210.938 92.8125 210.938Z" fill="#F8F8F8"/>
<path d="M202.5 25.3125H67.5C58.2188 25.3125 50.625 32.9062 50.625 42.1875V227.812C50.625 237.094 58.2188 244.688 67.5 244.688H126.562V227.812H67.5V177.188H219.375V42.1875C219.375 32.9062 211.781 25.3125 202.5 25.3125ZM202.5 160.312H67.5V109.688H202.5V160.312ZM202.5 92.8125H67.5V42.1875H202.5V92.8125Z" fill="#F8F8F8"/>
</svg>
