<svg width="60" height="60" viewBox="0 0 60 60" fill="none" xmlns="http://www.w3.org/2000/svg">
<g clip-path="url(#clip0_47_12)">
<path d="M3.33325 30.0001C3.33325 35.2742 4.89722 40.43 7.82739 44.8153C10.7576 49.2006 14.9223 52.6185 19.795 54.6369C24.6677 56.6552 30.0295 57.1833 35.2023 56.1543C40.3752 55.1254 45.1267 52.5857 48.8561 48.8563C52.5855 45.1269 55.1253 40.3753 56.1542 35.2025C57.1831 30.0296 56.655 24.6679 54.6367 19.7952C52.6184 14.9225 49.2004 10.7577 44.8151 7.82755C40.4298 4.89737 35.2741 3.3334 29.9999 3.3334C22.9275 3.3334 16.1447 6.14292 11.1437 11.1439C6.14277 16.1449 3.33325 22.9276 3.33325 30.0001ZM53.3333 30.0001C53.3333 34.615 51.9648 39.1262 49.4009 42.9634C46.837 46.8005 43.1928 49.7912 38.9292 51.5573C34.6656 53.3233 29.974 53.7854 25.4478 52.8851C20.9216 51.9847 16.764 49.7625 13.5008 46.4992C10.2375 43.236 8.01525 39.0784 7.11493 34.5522C6.21461 30.026 6.67669 25.3344 8.44273 21.0708C10.2088 16.8072 13.1995 13.163 17.0366 10.5991C20.8738 8.03521 25.385 6.66674 29.9999 6.66674C36.1883 6.66674 42.1232 9.12506 46.4991 13.5009C50.8749 17.8768 53.3333 23.8117 53.3333 30.0001Z" fill="black"/>
<path d="M13.7666 29.8667L26.4499 42.55C26.5993 42.7245 26.7832 42.8662 26.99 42.9662C27.1968 43.0662 27.422 43.1225 27.6515 43.1313C27.881 43.1402 28.1099 43.1015 28.3238 43.0177C28.5377 42.9339 28.7319 42.8068 28.8944 42.6444C29.0568 42.482 29.1839 42.2877 29.2677 42.0739C29.3515 41.86 29.3901 41.6311 29.3813 41.4016C29.3724 41.172 29.3162 40.9468 29.2161 40.74C29.1161 40.5333 28.9744 40.3494 28.7999 40.2L20.2999 31.6667L45.2999 31.6667C45.742 31.6667 46.1659 31.4911 46.4784 31.1785C46.791 30.8659 46.9666 30.442 46.9666 30C46.9666 29.558 46.791 29.134 46.4784 28.8215C46.1659 28.5089 45.742 28.3333 45.2999 28.3333L19.9999 28.3333L28.7999 19.5333C28.9744 19.3839 29.1161 19.2001 29.2161 18.9933C29.3162 18.7865 29.3724 18.5613 29.3813 18.3318C29.3901 18.1022 29.3515 17.8733 29.2677 17.6595C29.1839 17.4456 29.0568 17.2513 28.8944 17.0889C28.7319 16.9265 28.5377 16.7994 28.3238 16.7156C28.1099 16.6318 27.881 16.5931 27.6515 16.602C27.422 16.6109 27.1968 16.6671 26.99 16.7671C26.7832 16.8672 26.5993 17.0089 26.4499 17.1833L13.7666 29.8667Z" fill="black"/>
</g>
<defs>
<clipPath id="clip0_47_12">
<rect width="60" height="60" fill="white" transform="matrix(0 -1 1 0 0 60)"/>
</clipPath>
</defs>
</svg>
