<svg width="1694" height="177" viewBox="0 0 1694 177" fill="none" xmlns="http://www.w3.org/2000/svg">
<path opacity="0.69" d="M0 166.487C0 172.01 4.47715 176.487 10 176.487H1684C1689.52 176.487 1694 172.01 1694 166.487V10.0001C1694 4.47728 1689.52 0.000133038 1684 0.000133038H9.99999C4.47715 0.000133038 0 4.47729 0 10.0001V166.487Z" fill="#6A6A6A"/>
<g style="mix-blend-mode:multiply" opacity="0.69">
<path d="M79 142.955C79 148.478 83.4772 152.955 89 152.955H339C344.523 152.955 349 148.478 349 142.955V122.951C349 117.428 344.523 112.951 339 112.951H89C83.4771 112.951 79 117.428 79 122.951V142.955Z" fill="#6A6A6A"/>
</g>
<g style="mix-blend-mode:multiply" opacity="0.69">
<path d="M415 142.955C415 148.478 419.477 152.955 425 152.955H675C680.523 152.955 685 148.478 685 142.955V122.951C685 117.428 680.523 112.951 675 112.951H425C419.477 112.951 415 117.428 415 122.951V142.955Z" fill="#6A6A6A"/>
</g>
<g style="mix-blend-mode:multiply" opacity="0.69">
<path d="M751 142.955C751 148.478 755.477 152.955 761 152.955H1011C1016.52 152.955 1021 148.478 1021 142.955V122.951C1021 117.428 1016.52 112.951 1011 112.951H761C755.477 112.951 751 117.428 751 122.951V142.955Z" fill="#6A6A6A"/>
</g>
<g style="mix-blend-mode:multiply" opacity="0.69">
<path d="M1087 142.955C1087 148.478 1091.48 152.955 1097 152.955H1347C1352.52 152.955 1357 148.478 1357 142.955V122.951C1357 117.428 1352.52 112.951 1347 112.951H1097C1091.48 112.951 1087 117.428 1087 122.951V142.955Z" fill="#6A6A6A"/>
</g>
<g style="mix-blend-mode:multiply" opacity="0.69">
<path d="M1460 152.368C1460 157.891 1464.48 162.368 1470 162.368H1674C1679.52 162.368 1684 157.891 1684 152.368V31.1784C1684 25.6556 1679.52 21.1784 1674 21.1784H1470C1464.48 21.1784 1460 25.6556 1460 31.1784V152.368Z" fill="#6A6A6A"/>
</g>
</svg>
