<svg width="50" height="48" viewBox="0 0 50 48" fill="none" xmlns="http://www.w3.org/2000/svg">
<g clip-path="url(#clip0_48_1619)">
<path d="M48.5632 12.7886C48.8855 13.1108 49.0681 13.5459 49.0681 14.0024V47.126C49.0681 48.0767 48.3 48.8447 47.3494 48.8447H12.9744C12.0237 48.8447 11.2556 48.0767 11.2556 47.126V2.43848C11.2556 1.48779 12.0237 0.719727 12.9744 0.719727H35.7854C36.2419 0.719727 36.6824 0.902344 37.0046 1.22461L48.5632 12.7886ZM45.1042 14.792L34.9958 4.68359V14.792H45.1042ZM18.5603 4.58691V8.02441H21.9978V4.58691H18.5603ZM21.9978 8.02441V11.4619H25.4353V8.02441H21.9978ZM18.5603 11.4619V14.8994H21.9978V11.4619H18.5603ZM21.9978 14.8994V18.3369H25.4353V14.8994H21.9978ZM18.5603 18.3369V21.7744H21.9978V18.3369H18.5603ZM21.9978 21.7744V25.2119H25.4353V21.7744H21.9978ZM18.5603 25.2119V28.6494H21.9978V25.2119H18.5603ZM18.5603 28.6494V37.2432H25.4353V28.6494H18.5603ZM21.1384 31.2275H22.8572V34.665H21.1384V31.2275Z" fill="black"/>
</g>
<defs>
<clipPath id="clip0_48_1619">
<rect width="49.1234" height="47.0299" fill="white" transform="translate(0.121338 0.282227)"/>
</clipPath>
</defs>
</svg>
