<svg width="270" height="270" viewBox="0 0 270 270" fill="none" xmlns="http://www.w3.org/2000/svg">
<path d="M161.829 9.60827C161.581 9.60722 161.336 9.61565 161.087 9.62409C161.004 9.62673 160.922 9.63675 160.839 9.63991C159.995 9.66814 159.153 9.75093 158.319 9.88776C156.415 10.2026 154.622 10.7842 152.962 11.5858L26.1537 63.314C25.6696 63.5355 25.2003 63.7765 24.7362 64.0222C24.4209 64.1899 24.1034 64.3545 23.7975 64.5338C16.5745 68.5785 11.7119 76.0488 11.0422 84.3909C11.0116 84.7258 10.9926 85.0606 10.9762 85.3965C10.776 89.3562 11.5276 93.3063 13.1679 96.9158C18.9201 109.603 33.979 115.156 47.0497 109.259L47.0988 109.244L169.475 47.9715L169.557 47.9214L169.641 47.8882C180.022 43.1816 184.565 31.3106 180.006 21.2573C176.695 13.9536 169.502 9.61882 161.829 9.60669V9.60827ZM161.976 19.4791C166.682 19.6415 170.7 23.0492 171.502 27.8997C172.418 33.4421 168.756 38.5679 163.212 39.4855C157.669 40.402 152.56 36.738 151.644 31.1956C150.727 25.6532 154.39 20.5275 159.933 19.6109C160.626 19.496 161.305 19.4554 161.976 19.4791ZM186.68 45.6976C183.641 50.3667 179.294 54.2759 173.876 56.7718C173.819 56.7982 173.767 56.8287 173.71 56.8541L165.025 61.2046L195.365 112.835C199.103 106.63 205.72 102.759 212.799 102.37C213.637 102.324 214.476 102.333 215.321 102.386L186.68 45.6976ZM35.8099 71.2073C36.0651 71.2047 36.3162 71.2152 36.5682 71.2242C43.6309 71.4762 49.6864 76.612 50.8888 83.8804C52.263 92.1861 46.737 99.9254 38.4303 101.3C30.1236 102.674 22.3853 97.1305 21.0121 88.8248C19.6373 80.5191 25.1797 72.7962 33.4864 71.4225C34.2545 71.2928 35.0311 71.2211 35.8099 71.2078V71.2073ZM67.5497 110.017L58.6834 114.467L62.8041 125.871L36.0256 121.536L35.9918 121.437C32.1849 121.403 28.4076 120.764 24.8016 119.543L56.1786 205.681L55.965 206.094L56.3605 206.193L65.2758 230.664C67.7079 228.138 70.3931 225.852 73.3019 223.875L67.8808 208.995L95.1044 215.619H95.1203C97.2096 215.354 99.339 215.208 101.498 215.208C102.899 215.208 104.279 215.275 105.651 215.388L67.5502 110.019L67.5497 110.017ZM213.854 112.176C213.662 112.176 213.469 112.182 213.278 112.192C208.68 112.421 204.493 115.347 202.814 119.986C200.576 126.173 203.714 132.861 209.9 135.098C216.087 137.336 222.791 134.199 225.029 128.012C227.267 121.824 224.129 115.139 217.942 112.901C216.632 112.423 215.249 112.177 213.855 112.176L213.854 112.176ZM234.504 117.349C235.943 121.776 235.984 126.691 234.289 131.374C234.047 132.035 233.772 132.684 233.467 133.319L248.199 135.956L245.892 162.982L235.658 169.079L240.701 177.55L253.11 170.15L255.286 168.865L255.5 166.343L258.829 127.353L259.323 121.668L258.252 121.733L234.504 117.349ZM192.267 123.876L169.064 137.998L169.014 138.015V138.031L168.981 138.047L169.064 138.13L171.421 143.14L188.031 178.571L189.103 180.862L191.592 181.322L205.78 183.959L207.592 174.269L195.875 172.093L184.554 147.934L198.709 139.399C194.612 135.318 192.25 129.699 192.266 123.875L192.267 123.876ZM39.8968 132.149L58.4361 135.148L48.6312 156.16L39.8963 132.15L39.8968 132.149ZM67.5328 138.955L77.2064 165.734L57.2665 160.956L67.5339 138.955H67.5328ZM53.7728 170.25L72.3933 174.716L62.358 193.864L53.7728 170.25ZM81.7052 178.176L91.2464 204.527L70.5323 199.502L81.7052 178.176ZM101.496 225.06C80.777 225.06 63.8045 240.525 61.3856 260.574H73.2508C75.6027 247.127 87.3994 236.828 101.497 236.828C115.593 236.828 127.376 247.127 129.726 260.574H141.591C139.172 240.525 122.216 225.061 101.497 225.061L101.496 225.06ZM101.496 246.681C92.7662 246.681 85.56 252.559 83.4022 260.574H119.575C117.417 252.559 110.228 246.682 101.497 246.682L101.496 246.681Z" fill="#F8F8F8"/>
</svg>
