<svg width="270" height="270" viewBox="0 0 270 270" fill="none" xmlns="http://www.w3.org/2000/svg">
<path d="M247.5 64.35L195.75 20.925L181.238 38.1376L232.987 81.5625L247.5 64.35ZM88.65 38.1376L74.25 20.925L22.5 64.2375L37.0125 81.45L88.65 38.1376ZM135 45C79.0875 45 33.75 90.3376 33.75 146.25C33.75 202.163 78.975 247.5 135 247.5C161.853 247.5 187.607 236.833 206.595 217.845C225.583 198.857 236.25 173.103 236.25 146.25C236.25 119.397 225.583 93.6435 206.595 74.6555C187.607 55.6674 161.853 45 135 45ZM135 225C91.4625 225 56.25 189.788 56.25 146.25C56.25 102.713 91.4625 67.5 135 67.5C178.538 67.5 213.75 102.713 213.75 146.25C213.75 189.788 178.538 225 135 225ZM118.575 163.463L94.6125 139.5L82.6875 151.425L118.462 187.2L185.963 119.7L174.038 107.775L118.575 163.463Z" fill="#F8F8F8"/>
</svg>
