<svg width="90" height="85" viewBox="0 0 90 85" fill="none" xmlns="http://www.w3.org/2000/svg">
<path d="M81.5625 13.2812H8.4375C6.88184 13.2812 5.625 14.4683 5.625 15.9375V69.0625C5.625 70.5317 6.88184 71.7188 8.4375 71.7188H81.5625C83.1182 71.7188 84.375 70.5317 84.375 69.0625V15.9375C84.375 14.4683 83.1182 13.2812 81.5625 13.2812ZM74.4609 22.3208L46.7314 42.6992C46.0459 43.2056 45.0879 43.2056 44.4023 42.6992L16.6641 22.3208C16.5595 22.2446 16.4828 22.1394 16.4447 22.0199C16.4067 21.9005 16.4091 21.7728 16.4517 21.6547C16.4944 21.5367 16.5751 21.4341 16.6825 21.3616C16.7899 21.289 16.9187 21.25 17.0508 21.25H74.0742C74.2063 21.25 74.3351 21.289 74.4425 21.3616C74.5499 21.4341 74.6306 21.5367 74.6732 21.6547C74.7159 21.7728 74.7183 21.9005 74.6803 22.0199C74.6422 22.1394 74.5655 22.2446 74.4609 22.3208Z" fill="#F9DB3D"/>
</svg>
