<svg width="270" height="270" viewBox="0 0 270 270" fill="none" xmlns="http://www.w3.org/2000/svg">
<path d="M33.75 56.25V236.25H101.25V219.375H78.75V202.5H101.25V185.625H56.25V168.75H101.25V151.875H78.75V135H101.25V118.125H56.25V101.25H101.25V56.25H118.125V101.25H135V78.75H151.875V101.25H168.75V56.25H185.625V101.25H202.5V78.75H219.375V101.25H236.25V33.75H56.25C50.2826 33.75 44.5597 36.1205 40.3401 40.3401C36.1205 44.5597 33.75 50.2826 33.75 56.25ZM67.5 78.75C64.5163 78.75 61.6548 77.5647 59.5451 75.4549C57.4353 73.3452 56.25 70.4837 56.25 67.5C56.25 64.5163 57.4353 61.6548 59.5451 59.5451C61.6548 57.4353 64.5163 56.25 67.5 56.25C70.4837 56.25 73.3452 57.4353 75.4549 59.5451C77.5647 61.6548 78.75 64.5163 78.75 67.5C78.75 70.4837 77.5647 73.3452 75.4549 75.4549C73.3452 77.5647 70.4837 78.75 67.5 78.75Z" fill="#F8F8F8"/>
</svg>
