<svg width="1834" height="870" viewBox="0 0 1834 870" fill="none" xmlns="http://www.w3.org/2000/svg">
<g filter="url(#filter0_f_1_1724)">
<rect x="4" y="4" width="1782" height="754" rx="30" fill="#1A1A1A"/>
</g>
<path opacity="0.69" d="M18 367.799C18 373.322 22.4772 377.799 28 377.799H1702C1707.52 377.799 1712 373.322 1712 367.799V241.019C1712 235.496 1707.52 231.019 1702 231.019H28C22.4771 231.019 18 235.496 18 241.019V367.799Z" fill="#6A6A6A"/>
<g style="mix-blend-mode:multiply" opacity="0.69">
<path d="M97 348.229C97 353.751 101.477 358.229 107 358.229H357C362.523 358.229 367 353.751 367 348.229V334.958C367 329.436 362.523 324.958 357 324.958H107C101.477 324.958 97 329.436 97 334.958V348.229Z" fill="#6A6A6A"/>
</g>
<g style="mix-blend-mode:multiply" opacity="0.69">
<path d="M433 348.229C433 353.751 437.477 358.229 443 358.229H693C698.523 358.229 703 353.751 703 348.229V334.958C703 329.436 698.523 324.958 693 324.958H443C437.477 324.958 433 329.436 433 334.958V348.229Z" fill="#6A6A6A"/>
</g>
<g style="mix-blend-mode:multiply" opacity="0.69">
<path d="M769 348.229C769 353.751 773.477 358.229 779 358.229H1029C1034.52 358.229 1039 353.751 1039 348.229V334.958C1039 329.436 1034.52 324.958 1029 324.958H779C773.477 324.958 769 329.436 769 334.958V348.229Z" fill="#6A6A6A"/>
</g>
<g style="mix-blend-mode:multiply" opacity="0.69">
<path d="M1105 348.229C1105 353.751 1109.48 358.229 1115 358.229H1365C1370.52 358.229 1375 353.751 1375 348.229V334.958C1375 329.436 1370.52 324.958 1365 324.958H1115C1109.48 324.958 1105 329.436 1105 334.958V348.229Z" fill="#6A6A6A"/>
</g>
<g style="mix-blend-mode:multiply" opacity="0.69">
<path d="M1478 356.057C1478 361.579 1482.48 366.057 1488 366.057H1692C1697.52 366.057 1702 361.579 1702 356.057V258.633C1702 253.11 1697.52 248.633 1692 248.633H1488C1482.48 248.633 1478 253.11 1478 258.633V356.057Z" fill="#6A6A6A"/>
</g>
<path opacity="0.69" d="M18 532.191C18 537.714 22.4772 542.191 28 542.191H1702C1707.52 542.191 1712 537.714 1712 532.191V405.412C1712 399.889 1707.52 395.412 1702 395.412H28C22.4771 395.412 18 399.889 18 405.412V532.191Z" fill="#6A6A6A"/>
<g style="mix-blend-mode:multiply" opacity="0.69">
<path d="M97 512.621C97 518.144 101.477 522.621 107 522.621H357C362.523 522.621 367 518.144 367 512.621V499.351C367 493.828 362.523 489.351 357 489.351H107C101.477 489.351 97 493.828 97 499.351V512.621Z" fill="#6A6A6A"/>
</g>
<g style="mix-blend-mode:multiply" opacity="0.69">
<path d="M433 512.621C433 518.144 437.477 522.621 443 522.621H693C698.523 522.621 703 518.144 703 512.621V499.351C703 493.828 698.523 489.351 693 489.351H443C437.477 489.351 433 493.828 433 499.351V512.621Z" fill="#6A6A6A"/>
</g>
<g style="mix-blend-mode:multiply" opacity="0.69">
<path d="M769 512.621C769 518.144 773.477 522.621 779 522.621H1029C1034.52 522.621 1039 518.144 1039 512.621V499.351C1039 493.828 1034.52 489.351 1029 489.351H779C773.477 489.351 769 493.828 769 499.351V512.621Z" fill="#6A6A6A"/>
</g>
<g style="mix-blend-mode:multiply" opacity="0.69">
<path d="M1105 512.621C1105 518.144 1109.48 522.621 1115 522.621H1365C1370.52 522.621 1375 518.144 1375 512.621V499.351C1375 493.828 1370.52 489.351 1365 489.351H1115C1109.48 489.351 1105 493.828 1105 499.351V512.621Z" fill="#6A6A6A"/>
</g>
<g style="mix-blend-mode:multiply" opacity="0.69">
<path d="M1478 520.449C1478 525.972 1482.48 530.449 1488 530.449H1692C1697.52 530.449 1702 525.972 1702 520.449V423.025C1702 417.503 1697.52 413.025 1692 413.025H1488C1482.48 413.025 1478 417.503 1478 423.025V520.449Z" fill="#6A6A6A"/>
</g>
<path opacity="0.69" d="M18 696.585C18 702.108 22.4772 706.585 28 706.585H1702C1707.52 706.585 1712 702.108 1712 696.585V569.805C1712 564.282 1707.52 559.805 1702 559.805H28C22.4771 559.805 18 564.282 18 569.805V696.585Z" fill="#6A6A6A"/>
<g style="mix-blend-mode:multiply" opacity="0.69">
<path d="M97 677.015C97 682.537 101.477 687.015 107 687.015H357C362.523 687.015 367 682.537 367 677.015V663.745C367 658.222 362.523 653.745 357 653.745H107C101.477 653.745 97 658.222 97 663.745V677.015Z" fill="#6A6A6A"/>
</g>
<g style="mix-blend-mode:multiply" opacity="0.69">
<path d="M433 677.015C433 682.537 437.477 687.015 443 687.015H693C698.523 687.015 703 682.537 703 677.015V663.745C703 658.222 698.523 653.745 693 653.745H443C437.477 653.745 433 658.222 433 663.745V677.015Z" fill="#6A6A6A"/>
</g>
<g style="mix-blend-mode:multiply" opacity="0.69">
<path d="M769 677.015C769 682.537 773.477 687.015 779 687.015H1029C1034.52 687.015 1039 682.537 1039 677.015V663.745C1039 658.222 1034.52 653.745 1029 653.745H779C773.477 653.745 769 658.222 769 663.745V677.015Z" fill="#6A6A6A"/>
</g>
<g style="mix-blend-mode:multiply" opacity="0.69">
<path d="M1105 677.015C1105 682.537 1109.48 687.015 1115 687.015H1365C1370.52 687.015 1375 682.537 1375 677.015V663.745C1375 658.222 1370.52 653.745 1365 653.745H1115C1109.48 653.745 1105 658.222 1105 663.745V677.015Z" fill="#6A6A6A"/>
</g>
<g style="mix-blend-mode:multiply" opacity="0.69">
<path d="M1478 684.843C1478 690.366 1482.48 694.843 1488 694.843H1692C1697.52 694.843 1702 690.366 1702 684.843V587.419C1702 581.896 1697.52 577.419 1692 577.419H1488C1482.48 577.419 1478 581.896 1478 587.419V684.843Z" fill="#6A6A6A"/>
</g>
<defs>
<filter id="filter0_f_1_1724" x="0" y="0" width="1790" height="762" filterUnits="userSpaceOnUse" color-interpolation-filters="sRGB">
<feFlood flood-opacity="0" result="BackgroundImageFix"/>
<feBlend mode="normal" in="SourceGraphic" in2="BackgroundImageFix" result="shape"/>
<feGaussianBlur stdDeviation="2" result="effect1_foregroundBlur_1_1724"/>
</filter>
</defs>
</svg>
