<svg width="270" height="270" viewBox="0 0 270 270" fill="none" xmlns="http://www.w3.org/2000/svg">
<path d="M228.879 128.857C229.284 132.084 229.5 135.513 229.5 139.158C229.5 159.88 223.223 173.812 217.215 182.466C214.842 185.901 212.078 189.05 208.98 191.848C207.968 192.755 206.904 193.602 205.794 194.386L205.673 194.467C204.702 195.074 203.901 195.918 203.346 196.919C202.791 197.92 202.5 199.047 202.5 200.191V222.75C202.5 224.54 201.789 226.257 200.523 227.523C199.257 228.789 197.54 229.5 195.75 229.5H177.066C176.651 229.5 176.252 229.335 175.959 229.041C175.665 228.747 175.5 228.349 175.5 227.934C175.5 219.604 168.75 212.854 160.434 212.854H136.566C128.25 212.854 121.5 219.604 121.5 227.934C121.5 228.349 121.335 228.747 121.041 229.041C120.748 229.335 120.349 229.5 119.934 229.5H101.25C99.4598 229.5 97.7429 228.789 96.477 227.523C95.2112 226.257 94.5 224.54 94.5 222.75V211.275C94.4961 209.861 94.0484 208.484 93.22 207.338C92.3916 206.193 91.2244 205.336 89.883 204.889L89.343 204.633C88.2709 204.106 87.2338 203.511 86.238 202.851C83.268 200.934 78.5835 197.37 72.306 191.011C66.6437 185.183 62.0837 178.377 58.8465 170.923C56.3625 165.226 51.165 160.218 44.2125 159.043C43.1776 158.868 42.2377 158.334 41.5585 157.533C40.8793 156.733 40.5044 155.719 40.5 154.669V134.325C40.5 133.399 40.8282 132.503 41.4263 131.796C42.0245 131.089 42.8538 130.617 43.767 130.464C51.192 129.208 56.457 123.525 58.509 117.261C60.264 111.888 63.423 104.841 68.661 99.5353C73.0782 95.1306 78.0203 91.2857 83.376 88.0873C85.5219 86.7968 87.7295 85.6119 89.991 84.5368L90.342 84.3749L90.4095 84.3479C91.6266 83.8261 92.6634 82.9579 93.3907 81.8513C94.118 80.7447 94.5038 79.4486 94.5 78.1244V49.8148C97.9155 52.7848 101.898 55.9979 106.191 58.8598C112.05 62.8018 119.029 66.5009 126.198 67.8374C127.855 63.3349 130.03 59.0401 132.678 55.0394C131.855 54.952 131.031 54.8665 130.208 54.7829C125.415 54.2969 119.65 51.6373 113.697 47.6548C108.337 43.9688 103.301 39.8317 98.6445 35.2889C97.1875 33.8987 95.3584 32.9611 93.3792 32.5897C91.3999 32.2183 89.3554 32.429 87.4935 33.1964C85.5828 33.9465 83.9418 35.2539 82.7838 36.9488C81.6258 38.6437 81.0043 40.6476 81 42.7003V73.9394C72.9336 78.2036 65.5376 83.6301 59.049 90.0448C51.7185 97.4698 47.736 106.785 45.684 113.062C44.874 115.465 43.119 116.883 41.526 117.153C37.4678 117.836 33.7824 119.933 31.1234 123.074C28.4644 126.215 27.0036 130.196 27 134.311V154.656C26.9979 158.9 28.4991 163.007 31.2373 166.25C33.9755 169.492 37.7737 171.659 41.958 172.368C43.6455 172.638 45.468 174.015 46.467 176.323C50.3685 185.294 55.8667 193.482 62.694 200.488C69.5655 207.454 74.9925 211.653 78.8805 214.177C79.65 214.677 80.3655 215.109 81 215.487V222.75C81 225.409 81.5238 228.042 82.5414 230.499C83.5591 232.956 85.0507 235.188 86.9311 237.069C88.8115 238.949 91.0438 240.441 93.5007 241.458C95.9575 242.476 98.5907 243 101.25 243H119.934C128.25 243 135 236.25 135 227.934C135 227.056 135.702 226.354 136.566 226.354H160.434C161.298 226.354 162 227.056 162 227.934C162 236.25 168.75 243 177.066 243H195.75C201.121 243 206.271 240.866 210.069 237.069C213.867 233.271 216 228.12 216 222.75V203.593C220.687 199.701 224.82 195.186 228.285 190.174C235.777 179.415 243 162.823 243 139.158C243 129.357 241.637 120.582 239.045 112.738C236.519 118.613 233.084 124.052 228.865 128.857M226.814 70.6318C230.866 80.4213 231.51 91.2886 228.643 101.488C225.776 111.688 219.564 120.628 211.005 126.873C205.2 131.085 197.546 130.788 190.93 128.047L149.89 111.051C143.275 108.31 137.646 103.113 136.525 96.0388C134.779 84.6383 137.262 72.9925 143.507 63.2963C149.753 53.6 159.329 46.5228 170.431 43.3986C181.534 40.2744 193.395 41.3189 203.781 46.3353C214.167 51.3516 222.359 59.9933 226.814 70.6318ZM203.053 115.965C207.904 112.437 211.726 107.68 214.128 102.184C216.529 96.6879 217.422 90.6513 216.716 84.6953C216.009 78.7394 213.728 73.0793 210.108 68.2977C206.487 63.516 201.658 59.7856 196.116 57.4904C190.575 55.1952 184.523 54.4181 178.581 55.239C172.64 56.06 167.025 58.4493 162.314 62.1612C157.603 65.8731 153.966 70.7734 151.777 76.3576C149.589 81.9419 148.928 88.0085 149.863 93.9328C150.021 94.6987 150.413 95.3968 150.984 95.9308C151.848 96.8488 153.225 97.8208 155.061 98.5769L196.101 115.587C197.602 116.235 199.218 116.57 200.853 116.572C201.636 116.603 202.396 116.391 203.053 115.965ZM91.125 128.25C93.8103 128.25 96.3857 127.183 98.2845 125.284C100.183 123.385 101.25 120.81 101.25 118.125C101.25 115.44 100.183 112.864 98.2845 110.965C96.3857 109.067 93.8103 108 91.125 108C88.4397 108 85.8643 109.067 83.9655 110.965C82.0667 112.864 81 115.44 81 118.125C81 120.81 82.0667 123.385 83.9655 125.284C85.8643 127.183 88.4397 128.25 91.125 128.25Z" fill="#F8F8F8"/>
</svg>
