<svg width="270" height="270" viewBox="0 0 270 270" fill="none" xmlns="http://www.w3.org/2000/svg">
<path d="M253.125 219.375H236.25V101.25C236.25 96.7747 234.472 92.4825 231.307 89.3178C228.143 86.1531 223.851 84.3752 219.375 84.3752H151.875V33.7502C151.877 30.6944 151.049 27.6954 149.48 25.0733C147.911 22.4512 145.659 20.3045 142.965 18.8622C140.271 17.4199 137.236 16.7362 134.183 16.884C131.131 17.0319 128.176 18.0058 125.634 19.7018L41.2594 75.9377C38.9448 77.482 37.0479 79.5747 35.7377 82.0294C34.4276 84.4841 33.7447 87.2248 33.75 90.0073V219.375H16.875C14.6372 219.375 12.4911 220.264 10.9088 221.847C9.32645 223.429 8.4375 225.575 8.4375 227.813C8.4375 230.05 9.32645 232.197 10.9088 233.779C12.4911 235.361 14.6372 236.25 16.875 236.25H253.125C255.363 236.25 257.509 235.361 259.091 233.779C260.674 232.197 261.562 230.05 261.562 227.813C261.562 225.575 260.674 223.429 259.091 221.847C257.509 220.264 255.363 219.375 253.125 219.375ZM219.375 101.25V219.375H151.875V101.25H219.375ZM50.625 90.0073L135 33.7502V219.375H50.625V90.0073ZM118.125 118.125V135C118.125 137.238 117.236 139.384 115.654 140.966C114.071 142.549 111.925 143.438 109.688 143.438C107.45 143.438 105.304 142.549 103.721 140.966C102.139 139.384 101.25 137.238 101.25 135V118.125C101.25 115.887 102.139 113.741 103.721 112.159C105.304 110.577 107.45 109.688 109.688 109.688C111.925 109.688 114.071 110.577 115.654 112.159C117.236 113.741 118.125 115.887 118.125 118.125ZM84.375 118.125V135C84.375 137.238 83.4861 139.384 81.9037 140.966C80.3214 142.549 78.1753 143.438 75.9375 143.438C73.6997 143.438 71.5536 142.549 69.9713 140.966C68.389 139.384 67.5 137.238 67.5 135V118.125C67.5 115.887 68.389 113.741 69.9713 112.159C71.5536 110.577 73.6997 109.688 75.9375 109.688C78.1753 109.688 80.3214 110.577 81.9037 112.159C83.4861 113.741 84.375 115.887 84.375 118.125ZM84.375 177.188V194.063C84.375 196.3 83.4861 198.447 81.9037 200.029C80.3214 201.611 78.1753 202.5 75.9375 202.5C73.6997 202.5 71.5536 201.611 69.9713 200.029C68.389 198.447 67.5 196.3 67.5 194.063V177.188C67.5 174.95 68.389 172.804 69.9713 171.222C71.5536 169.639 73.6997 168.75 75.9375 168.75C78.1753 168.75 80.3214 169.639 81.9037 171.222C83.4861 172.804 84.375 174.95 84.375 177.188ZM118.125 177.188V194.063C118.125 196.3 117.236 198.447 115.654 200.029C114.071 201.611 111.925 202.5 109.688 202.5C107.45 202.5 105.304 201.611 103.721 200.029C102.139 198.447 101.25 196.3 101.25 194.063V177.188C101.25 174.95 102.139 172.804 103.721 171.222C105.304 169.639 107.45 168.75 109.688 168.75C111.925 168.75 114.071 169.639 115.654 171.222C117.236 172.804 118.125 174.95 118.125 177.188Z" fill="#F8F8F8"/>
</svg>
