<svg width="270" height="270" viewBox="0 0 270 270" fill="none" xmlns="http://www.w3.org/2000/svg">
<path d="M56.25 106.875C56.25 106.875 27.3206 118.125 22.5 157.5M213.75 106.875C213.75 106.875 242.679 118.125 247.5 157.5M101.25 106.875C101.25 106.875 128.25 113.439 135 146.25C141.75 113.439 168.75 106.875 168.75 106.875M112.5 191.25C112.5 191.25 88.875 195.469 78.75 225M157.5 191.25C157.5 191.25 181.125 195.469 191.25 225" stroke="#F8F8F8" stroke-width="22.5" stroke-linecap="round"/>
<path d="M135 202.5C150.533 202.5 163.125 189.908 163.125 174.375C163.125 158.842 150.533 146.25 135 146.25C119.467 146.25 106.875 158.842 106.875 174.375C106.875 189.908 119.467 202.5 135 202.5Z" stroke="#F8F8F8" stroke-width="22.5" stroke-linecap="round" stroke-linejoin="round"/>
<path d="M191.25 112.5C209.89 112.5 225 97.3896 225 78.75C225 60.1104 209.89 45 191.25 45C172.61 45 157.5 60.1104 157.5 78.75C157.5 97.3896 172.61 112.5 191.25 112.5Z" stroke="#F8F8F8" stroke-width="22.5" stroke-linecap="round" stroke-linejoin="round"/>
<path d="M78.75 112.5C97.3896 112.5 112.5 97.3896 112.5 78.75C112.5 60.1104 97.3896 45 78.75 45C60.1104 45 45 60.1104 45 78.75C45 97.3896 60.1104 112.5 78.75 112.5Z" stroke="#F8F8F8" stroke-width="22.5" stroke-linecap="round" stroke-linejoin="round"/>
</svg>
