<svg width="80" height="59" viewBox="0 0 80 59" fill="none" xmlns="http://www.w3.org/2000/svg">
<path d="M76.5625 0.28125H3.4375C1.88184 0.28125 0.625 1.46826 0.625 2.9375V56.0625C0.625 57.5317 1.88184 58.7188 3.4375 58.7188H76.5625C78.1182 58.7188 79.375 57.5317 79.375 56.0625V2.9375C79.375 1.46826 78.1182 0.28125 76.5625 0.28125ZM69.4609 9.3208L41.7314 29.6992C41.0459 30.2056 40.0879 30.2056 39.4023 29.6992L11.6641 9.3208C11.5595 9.24459 11.4828 9.13939 11.4447 9.01994C11.4067 8.90049 11.4091 8.77278 11.4518 8.65472C11.4944 8.53665 11.5751 8.43415 11.6825 8.36157C11.7899 8.28899 11.9187 8.24998 12.0508 8.25H69.0742C69.2063 8.24998 69.3351 8.28899 69.4425 8.36157C69.5499 8.43415 69.6306 8.53665 69.6733 8.65472C69.7159 8.77278 69.7183 8.90049 69.6803 9.01994C69.6422 9.13939 69.5655 9.24459 69.4609 9.3208Z" fill="#EDCA38"/>
</svg>
