<svg width="60" height="60" viewBox="0 0 60 60" fill="none" xmlns="http://www.w3.org/2000/svg">
<path d="M3 12C3 8.7 5.7 6 9 6H51C52.5913 6 54.1174 6.63214 55.2426 7.75736C56.3679 8.88258 57 10.4087 57 12V54C57 55.5913 56.3679 57.1174 55.2426 58.2426C54.1174 59.3679 52.5913 60 51 60H9C7.4087 60 5.88258 59.3679 4.75736 58.2426C3.63214 57.1174 3 55.5913 3 54V12ZM9 18V54H51V18H9ZM15 0H21V6H15V0ZM39 0H45V6H39V0ZM15 27H21V33H15V27ZM15 39H21V45H15V39ZM27 27H33V33H27V27ZM27 39H33V45H27V39ZM39 27H45V33H39V27ZM39 39H45V45H39V39Z" fill="#EDCA38"/>
</svg>
